<svg version="1.1" xmlns="http://www.w3.org/2000/svg" style="display: block;" viewBox="0 0 2048 1117" width="1408" height="768" preserveAspectRatio="none">
<defs>
	<linearGradient id="Gradient1" gradientUnits="userSpaceOnUse" x1="945.334" y1="469.854" x2="1056.76" y2="318.109">
		<stop class="stop0" offset="0" stop-opacity="1" stop-color="rgb(14,63,97)"/>
		<stop class="stop1" offset="1" stop-opacity="1" stop-color="rgb(29,117,138)"/>
	</linearGradient>
	<linearGradient id="Gradient2" gradientUnits="userSpaceOnUse" x1="891.683" y1="592.746" x2="1129.78" y2="276.872">
		<stop class="stop0" offset="0" stop-opacity="1" stop-color="rgb(11,41,80)"/>
		<stop class="stop1" offset="1" stop-opacity="1" stop-color="rgb(35,114,138)"/>
	</linearGradient>
</defs>
<path transform="translate(0,0)" fill="url(#Gradient2)" d="M 1074.33 205.503 C 1086.65 180.199 1108.73 186.187 1111.87 213.844 C 1132.69 228.415 1155.28 241.168 1176.19 255.42 C 1184.03 252.692 1190.37 250.61 1198.41 254.462 C 1202.01 256.164 1204.76 259.26 1206.02 263.035 C 1208.46 270.111 1206.37 276.29 1203.61 282.857 C 1214.1 297.721 1227.58 319.306 1237.8 332.886 C 1246.83 333.176 1252.12 333.213 1258.81 340.188 C 1266.73 348.434 1263.17 359.273 1255.11 365.661 C 1254.71 372.639 1269.79 418.735 1272.59 428.056 C 1293.39 435.21 1299.1 451.25 1280.04 464.962 C 1272.38 465.509 1270.45 465.727 1262.74 464.62 C 1255.05 473.761 1242.29 487.69 1235.66 496.534 C 1228.99 505.425 1218.66 531.155 1213.79 542.601 C 1230.55 567.182 1206.94 586.079 1185.96 567.39 C 1164.09 572.796 1141.26 580.792 1119.9 585.582 C 1120.9 598.408 1121.97 610.569 1121.93 623.457 C 1126.48 626.055 1133.06 630.039 1135.06 635.148 C 1146.49 664.458 1089.04 671.502 1103.13 632.145 C 1085.42 613.416 1062.45 590.593 1043.97 572.681 C 1023.28 581.404 1013.29 577.73 999.634 561.159 C 973.835 567.947 948.1 574.975 922.432 582.241 C 920.174 590.799 916.898 597.806 907.298 599.759 C 902.538 600.688 897.604 599.657 893.614 596.901 C 882.239 588.915 884.976 577.703 891.994 568.03 C 884.807 552.705 875.772 529.917 867.891 515.869 C 852.697 509.643 834.409 503.769 818.691 498.345 C 809.458 505.083 798.396 509.828 789.147 499.667 C 786.099 496.299 784.556 491.832 784.877 487.301 C 785.43 479.667 789.041 476.084 794.492 471.533 C 787.499 452.988 780.616 415.633 774.58 394.285 C 759.51 390.472 749.801 378.304 761.977 363.812 C 767.23 357.56 774.873 357.831 782.51 358.012 C 794.495 341.174 807.543 322.473 820.806 306.742 C 813.445 284.176 821.632 270.484 846.422 278.41 C 858.033 269.612 869.001 257.914 880.615 248.899 C 885.855 244.832 891.342 240.285 896.089 235.663 C 891.862 209.73 914.028 198.63 930.72 220.057 C 958.325 219.541 994.393 211.824 1021.14 210.986 C 1036.82 208.852 1060.54 207.971 1074.33 205.503 z M 1116.43 389.015 C 1104.76 396.014 1093.15 403.096 1081.58 410.26 C 1074.8 414.383 1062.64 421.233 1057.05 426.22 C 1048.37 450.719 1038.04 451.262 1013.92 450.899 C 1000.11 460.728 980.52 469.996 965.794 479.741 C 980.945 492.408 1001.88 503.924 1018.75 517.632 C 1038.35 520.197 1042.77 515.607 1059.5 505.675 C 1072.01 498.247 1084.62 490.543 1097.08 483.008 C 1106.01 460.638 1120.98 456.579 1142.35 464.335 C 1156.13 447.496 1171.66 430.888 1184.86 413.796 C 1172.77 404.181 1158.91 392.643 1147.24 382.567 L 1148.09 381.233 C 1146.17 381.179 1145.78 381.506 1144.46 380.602 C 1148.27 374.316 1144.9 365.175 1155.7 362.278 C 1155.55 364.937 1153.92 372.415 1153.36 375.37 C 1165.71 385.952 1178.15 396.431 1190.67 406.804 C 1197.72 399.561 1226.42 367.005 1229.83 359.219 C 1232.58 368.905 1245.02 371.807 1252.66 367.761 L 1253.51 365.809 L 1255.11 365.661 C 1263.17 359.273 1266.73 348.434 1258.81 340.188 C 1252.12 333.213 1246.83 333.176 1237.8 332.886 C 1227.58 319.306 1214.1 297.721 1203.61 282.857 C 1206.37 276.29 1208.46 270.111 1206.02 263.035 C 1204.76 259.26 1202.01 256.164 1198.41 254.462 C 1190.37 250.61 1184.03 252.692 1176.19 255.42 C 1155.28 241.168 1132.69 228.415 1111.87 213.844 C 1108.73 186.187 1086.65 180.199 1074.33 205.503 C 1060.54 207.971 1036.82 208.852 1021.14 210.986 C 1021.92 216.483 1023.43 217.486 1027.99 220.338 L 969.504 226.179 C 957.196 227.293 940.512 228.221 928.576 230.287 C 947.658 244.258 983.184 264.984 1004.52 278.519 C 1014.48 271.868 1020.9 267.389 1033.49 270.271 C 1033.51 280.243 1038.18 278.556 1035.98 282.111 C 1029.96 285.226 1031.96 282.498 1027.55 283.66 C 1038.03 288.097 1042.16 290.768 1042.22 302.927 C 1066.62 317.608 1092.01 333.834 1116.96 346.874 C 1117.73 347.279 1138.56 339.568 1140.92 355.89 C 1143.4 373.138 1128.79 378.313 1115.92 371.852 C 1112.58 373.875 1108.27 376.309 1105.12 378.464 C 1111.49 376.57 1113.66 376.867 1120.01 378.845 C 1122.96 379.765 1135.01 382.989 1136.34 385.017 L 1134.72 386.404 L 1135.22 387.556 C 1130.11 389.622 1122.11 389.072 1116.43 389.015 z M 947.852 383.16 C 946.707 402.956 947.3 424.7 947.073 444.672 C 962.069 435.775 978.28 426.068 993.106 416.867 C 999.923 412.446 1001.06 397.651 1013.34 393.428 C 1022.03 390.44 1030.31 392.444 1037.44 389.634 L 1038.19 389.342 C 1045.04 386.634 1080.57 364.406 1088.08 359.203 C 1074.53 350.986 1051.06 335.807 1037.36 328.986 C 1029.72 329.417 1025.33 329.659 1017.71 329.038 C 1004.26 335.411 973.098 355.232 959.634 363.43 C 955.037 372.776 954.192 375.082 947.852 383.16 z M 971.467 309.805 C 978.984 305.507 997.98 296.622 999.325 288.127 C 993.928 282.388 929.31 240.935 924.121 240.487 C 920.84 244.055 919.706 245.876 920.481 251.106 C 924.21 276.268 924.543 306.13 929.564 330.675 C 936.786 333.905 963.925 314.338 971.467 309.805 z M 852.131 285.774 C 852.61 291.425 852.843 294.718 852.562 300.469 C 862.825 307.875 875.27 316.452 885.045 324.208 C 891.607 329.035 898.102 333.952 904.529 338.957 C 909.058 336.702 915.309 333.818 919.533 331.299 L 913.23 273.151 C 912.528 266.657 911.259 250.079 909.56 244.904 C 906.505 243.167 905.555 243.141 902.209 242.649 C 885.472 256.93 869.03 271.775 852.131 285.774 z M 842.207 363.715 C 859.858 361.88 878.627 360.227 896.118 357.788 L 899.919 346.66 C 893.597 341.894 849.903 308.522 845.95 308.111 C 838.355 311.349 835.652 311.082 827.49 311.571 C 820.9 321.468 790.887 360.042 790.694 366.93 C 794.992 370.559 834.224 364.552 842.207 363.715 z M 1112.35 626.53 C 1113.15 619.322 1110.78 595.924 1110.75 585.898 C 1102.09 581.772 1057.2 562.359 1050.29 563.03 C 1050.49 564.402 1050.94 566.813 1051.93 567.833 C 1071.02 587.34 1091.44 606.161 1109.97 626.194 L 1112.35 626.53 z M 903.747 497.828 C 894.654 502.45 886.553 508.532 877.834 513.732 C 885.34 528.775 891.507 545.233 899.04 560.822 L 900.366 563.915 L 901.845 563.794 C 905.089 558.875 914.303 516.276 916.997 506.564 C 911.376 503.415 908.815 501.618 903.747 497.828 z M 1073.26 560.838 C 1087.73 566.32 1097.84 570.389 1111.83 576.844 C 1112.03 568.165 1118.35 520.796 1117.77 518.689 L 1116.41 517.846 C 1099.31 528.212 1070.75 543.258 1055.72 553.652 C 1061.77 556.872 1066.85 558.551 1073.26 560.838 z M 907.441 461.504 C 908.174 439.262 907.339 416.948 907.696 394.692 C 907.757 390.872 908.103 388.64 905.791 385.615 C 899.853 391.643 864.375 425.767 863.899 429.969 C 866.809 434.031 878.53 440.963 883.404 444.156 C 892.345 450.04 898.978 454.916 907.441 461.504 z M 843.764 497.357 C 851.16 500.014 860.22 503.011 867.136 506.382 C 864.161 497.819 852.094 441.379 851.511 440.745 C 841.224 452.369 828.038 465.834 818.55 477.357 L 821.354 489.54 C 828.682 492.077 836.549 494.643 843.764 497.357 z M 899.616 466.294 C 893.49 462.04 867.273 443.538 862.278 441.928 C 863.127 458.945 873.595 487.778 874.509 505.305 L 890.5 495.024 C 893.365 493.184 895.966 491.652 898.52 489.383 C 896.906 479.132 896.632 476.611 899.616 466.294 z M 1257.3 457.864 C 1256.27 453.92 1255.38 449.659 1254.47 445.66 C 1257.01 438.941 1259.17 436.633 1263.64 431.274 C 1261.14 423.546 1249.73 381.851 1246.52 379.399 C 1245.27 381.823 1244.62 393.584 1244.12 397.332 L 1243.83 402.175 C 1243.29 411.2 1234.97 475.254 1235.65 478.286 L 1237.32 478.801 C 1241.66 475.991 1253.4 462.212 1257.3 457.864 z M 1191.06 541.505 L 1204.6 539.506 L 1208.9 529.418 C 1213.62 519.095 1218.23 508.725 1222.74 498.311 C 1198.92 498.72 1179.65 496.029 1156.49 495.36 C 1153.63 498.438 1152.6 503.047 1151.33 507.128 C 1165.95 518.094 1177.48 530.258 1191.06 541.505 z M 1156.79 486.063 C 1166.46 486.203 1174.6 486.623 1184.25 487.365 C 1195.71 489.273 1210.6 489.542 1222.6 490.593 C 1219.72 483.172 1192.17 424.003 1189.64 422.464 C 1176.97 438.397 1162.76 454.727 1149.39 470.173 C 1151.93 475.439 1154.52 480.678 1156.79 486.063 z M 1154.22 566.253 C 1161.57 564.431 1180.2 560.806 1184.86 556.011 C 1187.67 545.524 1153.44 521.414 1145.55 513.889 C 1145.16 513.52 1144.06 513.912 1143.58 514.026 C 1136.92 517.292 1134.24 517.99 1127.14 519.896 C 1125.3 539.602 1122.94 556.544 1120.16 576.115 C 1131.31 572.504 1143.91 569.711 1154.22 566.253 z M 1196.97 413.822 C 1207.06 435.401 1218.73 458.677 1226.8 480.895 C 1229.44 460.513 1229.7 438.305 1232.78 417.685 C 1233.77 411.076 1234.16 402.002 1235.79 395.737 L 1236.11 387.801 C 1236.84 382.261 1238.1 374.959 1237.71 369.536 L 1236.07 368.966 C 1230.95 372.664 1203.32 406.543 1196.97 413.822 z M 965.688 560.886 L 998.041 552.311 C 981.583 537.915 959.014 525.266 941.613 511.558 C 937.727 508.496 934.219 507.117 929.213 507.021 C 924.571 509.287 922.956 517.227 922.388 522.324 C 921.164 533.314 906.864 566.734 919.06 572.444 C 925.341 572.891 957.24 563.107 965.688 560.886 z M 785.558 388.797 C 783.068 396.282 797.527 443.905 799.471 455.454 C 804.862 487.484 820.403 460.753 829.219 451.723 C 833.906 446.415 843.523 435.542 848.835 431.711 C 837.834 424.133 795.265 392.768 785.558 388.797 z M 789.306 378.743 C 797.668 386.386 819.223 400.359 829.454 407.345 C 834.641 410.871 850.168 423.061 855.079 422.536 C 868.338 413.025 888.134 388.827 902.157 377.261 C 900.582 374.291 898.732 370.543 897.069 367.71 C 895.029 367.827 887.299 368.12 885.725 368.419 C 854.433 371.96 820.072 374.885 789.306 378.743 z"/>
<path transform="translate(0,0)" fill="rgb(26,230,199)" d="M 1027.55 283.66 C 1038.03 288.097 1042.16 290.768 1042.22 302.927 C 1066.62 317.608 1092.01 333.834 1116.96 346.874 C 1117.73 347.279 1138.56 339.568 1140.92 355.89 C 1143.4 373.138 1128.79 378.313 1115.92 371.852 C 1112.58 373.875 1108.27 376.309 1105.12 378.464 C 1086.63 388.006 1059.06 405.953 1042.39 418.314 C 1040.55 419.676 1042.19 447.071 1015.46 432.721 C 1005.27 438.819 944.845 472.027 942.954 477.45 C 943.734 480.609 946.093 483.87 948.622 485.879 C 970.364 503.16 994.776 518.014 1017.01 534.619 C 1027.96 531.964 1036.18 535.342 1040.51 532.988 C 1062.52 521.016 1089.86 506.387 1110.21 491.576 C 1110.02 491.719 1112.87 483.733 1113.28 482.662 C 1114.82 478.645 1118.31 475.991 1122.28 474.58 C 1125.27 473.507 1128.57 473.693 1131.42 475.095 C 1146.65 482.582 1142.56 508.989 1122.54 504.068 C 1120.01 503.676 1115.93 501.79 1113.58 502.905 C 1089.07 514.576 1066.31 531.462 1042.16 543.795 C 1041.3 569.304 1011.58 569.331 1011.85 542.576 C 988.849 525.591 961.163 506.752 937.469 490.702 C 929.397 495.034 919.511 494.569 914.257 486.221 C 912.236 482.991 911.637 479.07 912.602 475.384 C 914.141 469.341 917.676 467.004 922.712 464.06 L 922.238 375.389 C 902.712 363.53 913.695 336.852 937.415 348.533 C 960.783 333.202 987.075 317.989 1011.17 303.539 C 1011.6 290.543 1015.25 287.277 1027.55 283.66 z M 959.634 363.43 C 955.037 372.776 954.192 375.082 947.852 383.16 C 946.707 402.956 947.3 424.7 947.073 444.672 C 962.069 435.775 978.28 426.068 993.106 416.867 C 999.923 412.446 1001.06 397.651 1013.34 393.428 C 1022.03 390.44 1030.31 392.444 1037.44 389.634 L 1038.19 389.342 C 1045.04 386.634 1080.57 364.406 1088.08 359.203 C 1074.53 350.986 1051.06 335.807 1037.36 328.986 C 1029.72 329.417 1025.33 329.659 1017.71 329.038 C 1004.26 335.411 973.098 355.232 959.634 363.43 z"/>
<path transform="translate(0,0)" fill="url(#Gradient1)" d="M 1015.64 311.763 C 1016.26 311.994 1016.89 312.221 1017.52 312.444 C 1026.8 315.734 1028.69 315.367 1037.41 311.199 L 1083.88 339.221 C 1090.46 343.174 1104.53 350.964 1109.65 355.558 C 1110.46 359.05 1110.34 359.723 1109.96 363.173 C 1103.61 368.225 1091.02 375.365 1083.74 379.776 L 1036.16 408.544 C 1020.79 403.101 1012.35 407.321 1010.62 424.377 C 1007.19 426.579 1003.03 428.853 999.454 430.923 C 988.233 437.269 947.6 463.733 938.934 465.879 C 938.032 466.103 935.47 464.678 934.694 464.094 C 931.436 461.642 932.657 385.863 932.596 376.192 C 934.278 374.857 935.923 373.476 937.529 372.051 C 942.592 367.481 942.646 362.538 942.953 356.178 C 966.47 341.657 992.955 327.04 1015.64 311.763 z M 959.634 363.43 C 955.037 372.776 954.192 375.082 947.852 383.16 C 946.707 402.956 947.3 424.7 947.073 444.672 C 962.069 435.775 978.28 426.068 993.106 416.867 C 999.923 412.446 1001.06 397.651 1013.34 393.428 C 1022.03 390.44 1030.31 392.444 1037.44 389.634 L 1038.19 389.342 C 1045.04 386.634 1080.57 364.406 1088.08 359.203 C 1074.53 350.986 1051.06 335.807 1037.36 328.986 C 1029.72 329.417 1025.33 329.659 1017.71 329.038 C 1004.26 335.411 973.098 355.232 959.634 363.43 z"/>
<path transform="translate(0,0)" fill="rgb(37,122,144)" d="M 1074.33 205.503 C 1086.65 180.199 1108.73 186.187 1111.87 213.844 C 1132.69 228.415 1155.28 241.168 1176.19 255.42 C 1184.03 252.692 1190.37 250.61 1198.41 254.462 C 1202.01 256.164 1204.76 259.26 1206.02 263.035 C 1208.46 270.111 1206.37 276.29 1203.61 282.857 C 1214.1 297.721 1227.58 319.306 1237.8 332.886 C 1246.83 333.176 1252.12 333.213 1258.81 340.188 C 1266.73 348.434 1263.17 359.273 1255.11 365.661 L 1253.51 365.809 L 1252.66 367.761 C 1245.02 371.807 1232.58 368.905 1229.83 359.219 C 1222.55 355.686 1169.15 363.532 1155.7 362.278 C 1144.9 365.175 1148.27 374.316 1144.46 380.602 C 1145.78 381.506 1146.17 381.179 1148.09 381.233 L 1147.24 382.567 C 1144.25 383.911 1138.14 386.882 1135.22 387.556 L 1134.72 386.404 L 1136.34 385.017 C 1135.01 382.989 1122.96 379.765 1120.01 378.845 C 1113.66 376.867 1111.49 376.57 1105.12 378.464 C 1108.27 376.309 1112.58 373.875 1115.92 371.852 C 1128.79 378.313 1143.4 373.138 1140.92 355.89 C 1138.56 339.568 1117.73 347.279 1116.96 346.874 C 1092.01 333.834 1066.62 317.608 1042.22 302.927 C 1042.16 290.768 1038.03 288.097 1027.55 283.66 C 1031.96 282.498 1029.96 285.226 1035.98 282.111 C 1038.18 278.556 1033.51 280.243 1033.49 270.271 C 1036.27 271.316 1037.45 271.97 1040.47 271.589 C 1045.82 266.077 1076.22 223.191 1078.27 216.827 C 1072.75 214.12 1036.22 219.298 1027.99 220.338 C 1023.43 217.486 1021.92 216.483 1021.14 210.986 C 1036.82 208.852 1060.54 207.971 1074.33 205.503 z M 1126.13 329.612 L 1139.5 333.023 L 1154.24 311.289 C 1161.23 301.734 1168.12 292.107 1174.91 282.41 C 1172.18 275.541 1171.03 271.413 1171.4 263.937 C 1162.94 258.341 1108.23 222.45 1102.76 221.487 C 1102.88 234.043 1110.87 263.072 1114.22 276.896 C 1118.31 293.828 1121.94 312.995 1126.13 329.612 z M 1195.54 287.021 L 1183.13 287.162 C 1172.58 300.866 1157.95 322.813 1147.55 337.78 L 1156.42 353.226 C 1167.92 353.063 1179.52 351.825 1190.99 350.775 C 1198.74 350.459 1223.61 350.502 1228.33 346.339 C 1232.22 336.491 1202.03 298.266 1195.54 287.021 z M 1087.97 224.542 C 1083.11 228.311 1052.43 271.021 1048.88 277.356 L 1057.56 294.607 C 1068.93 301.303 1080.72 308.048 1091.95 314.89 C 1100.4 320.15 1110.8 327.939 1118.39 332.383 C 1108.47 297.497 1102.05 259.893 1092.5 226.583 C 1091.15 225.963 1089.31 225.062 1087.97 224.542 z"/>
<path transform="translate(0,0)" fill="rgb(37,122,144)" d="M 1236.11 387.801 C 1238.16 388.525 1241.77 389.518 1243.2 390.921 L 1243.11 390.311 C 1244.28 392.673 1244.06 394.664 1244.12 397.332 L 1243.83 402.175 C 1243.05 399.954 1242.49 398.134 1242.34 395.777 L 1241.79 396.632 L 1239.73 396.405 L 1239.27 394.631 L 1237.39 393.585 L 1236.86 395.835 L 1235.79 395.737 L 1236.11 387.801 z"/>
<path transform="translate(0,0)" fill="rgb(18,55,89)" d="M 942.362 712.087 C 968.196 709.384 971.479 717.696 987.794 729.153 L 989.376 728.735 C 991.009 724.669 990.306 718.898 990.109 714.371 C 995.457 714.101 1002.66 714.273 1008.16 714.261 L 1008.17 785.523 C 1008.18 797.498 1008.71 809.696 1008.15 821.636 C 1006.56 855.658 976.974 870.508 946.281 867.942 C 925.265 866.186 916.323 858.536 903.559 843.478 C 907.422 840.493 913.267 836.769 917.424 833.935 L 919.574 833.44 C 920.832 835.325 922.433 837.652 923.966 839.287 C 931.07 846.722 940.814 851.063 951.093 851.372 C 986.589 852.43 989.756 829.392 990.357 801.501 C 981.335 812.326 975.864 818.953 960.744 822.268 C 947.285 825.151 933.232 822.592 921.653 815.151 C 879.44 787.934 891.655 722.855 942.362 712.087 z M 956.455 805.295 C 976.91 803.252 991.974 785.225 990.351 764.733 C 988.728 744.241 971.015 728.811 950.494 730.013 C 936.84 730.813 924.685 738.932 918.719 751.24 C 912.752 763.547 913.906 778.119 921.735 789.334 C 929.565 800.548 942.846 806.654 956.455 805.295 z"/>
<path transform="translate(0,0)" fill="rgb(18,55,89)" d="M 1150.26 712.148 C 1173.44 709.9 1182.28 716.792 1197.79 732.519 C 1198.09 726.893 1197.85 720.352 1197.79 714.653 C 1203.09 714.16 1210.41 714.292 1215.87 714.229 C 1214.35 746.623 1215.58 789.158 1215.8 822.421 C 1208.9 822.708 1201.67 824.617 1197.5 818.719 C 1196.44 814.452 1198.3 808.124 1199.25 803.608 C 1195.88 806.407 1192.74 809.776 1189.67 812.927 C 1174.55 827.478 1147.29 827.556 1129.91 817.087 C 1117.4 809.575 1108.48 797.306 1105.19 783.091 C 1097.29 748.964 1116.38 719.778 1150.26 712.148 z M 1165.39 806.207 C 1186.15 803.289 1200.7 784.221 1198.04 763.429 C 1195.37 742.637 1176.49 727.852 1155.66 730.259 C 1141.96 731.843 1130.17 740.672 1124.8 753.373 C 1119.42 766.073 1121.3 780.683 1129.7 791.619 C 1138.1 802.555 1151.73 808.127 1165.39 806.207 z"/>
<path transform="translate(0,0)" fill="rgb(18,55,89)" d="M 694.559 712.254 C 697.246 711.683 700.171 711.713 702.933 711.665 C 731.427 711.168 754.732 737.798 755.053 765.39 C 755.093 768.841 755.086 772.267 755.047 775.715 C 751.104 775.41 746.52 775.312 742.569 775.339 C 716.581 775.517 690.012 774.37 664.083 775.507 C 671.706 806.933 704.122 817.342 729.297 798.461 C 731.216 795.951 733.097 793.841 735.187 791.482 C 740.178 794.658 745.129 797.896 750.039 801.195 C 719.26 841.911 653.503 827.864 645.529 776.997 C 643.316 761.984 647.157 746.707 656.208 734.527 C 665.775 721.602 678.832 714.476 694.559 712.254 z M 664.073 760.734 C 678.536 760.982 693.002 761.035 707.466 760.894 C 716.981 760.949 726.752 761.148 736.231 760.582 C 730.962 737.965 718.958 727.846 695.245 729.16 C 676.656 733.175 669.06 743.091 664.073 760.734 z"/>
<path transform="translate(0,0)" fill="rgb(18,55,89)" d="M 1291.07 712.203 C 1308.15 709.661 1319.09 717.827 1327.34 731.925 C 1329.56 729.077 1331.87 726.063 1334.3 723.514 C 1353.23 701.688 1396.23 711.777 1400.25 741.392 C 1403.6 766.034 1401.94 796.657 1401.86 821.917 L 1383 822.01 C 1382.6 804.273 1386.52 755.171 1379.43 742.047 C 1374.99 733.812 1369.22 731.067 1360.69 728.409 C 1326.09 735.516 1332.62 764.677 1332.88 792.872 L 1332.84 822.004 L 1313.98 821.939 C 1313.72 804.047 1317.42 755.671 1310.61 742.215 C 1306.28 733.653 1300.87 731.133 1292.16 728.391 C 1269.49 732.679 1263.51 746.416 1263.58 768.431 C 1263.64 786.256 1264.17 804.197 1263.97 822.015 C 1257.58 822.383 1251.55 822.121 1245.16 821.932 C 1245.98 787.07 1245.24 749.374 1245.31 714.18 C 1251.08 714.106 1256.63 713.943 1262.39 714.418 C 1264.51 718.328 1261.47 721.886 1263.12 727.234 C 1268.55 728.784 1272.7 719.308 1277.84 716.478 C 1282.91 713.682 1285.42 713.186 1291.07 712.203 z"/>
<path transform="translate(0,0)" fill="rgb(18,55,89)" d="M 827.505 712.271 C 856.475 706.01 875.173 734.999 874.421 760.846 C 873.833 781.07 874.451 802.446 874.756 822.711 C 868.313 822.586 861.59 822.221 855.131 821.954 C 855.062 792.422 867.539 712.184 815.001 732.702 C 800.246 741.866 797.041 753.197 796.985 770.148 C 796.927 787.648 797.084 805.172 797.192 822.674 C 789.863 822.85 785.403 822.555 778.087 821.878 L 778.088 714.257 C 784.382 714.138 790.497 713.891 796.773 714.464 C 798.228 718.255 795.788 723.267 796.916 728.61 C 802.211 728.852 809.019 713.981 827.505 712.271 z"/>
<path transform="translate(0,0)" fill="rgb(18,55,89)" d="M 1080.51 713.085 C 1085.25 712.615 1087.83 711.932 1091.6 714.475 C 1093.15 717.662 1091.97 727.094 1091.83 731.654 C 1066.04 732.95 1056.6 745.151 1056.6 770.968 C 1056.59 787.832 1056.92 804.929 1056.87 821.805 C 1052.12 822.03 1042.01 823.018 1038.03 821.094 C 1037.37 820.775 1037.24 819.236 1036.99 818.25 L 1037.15 714.327 C 1043.77 714.146 1050.8 714.225 1057.46 714.185 C 1056.85 719.155 1054.37 725.753 1057.11 729.785 C 1061.18 728.603 1066.56 720.495 1070.68 717.816 C 1073.97 715.682 1076.89 714.546 1080.51 713.085 z"/>
</svg>